<svg xmlns="http://www.w3.org/2000/svg" viewBox="0 0 72 72">
  <rect width="72" height="72" rx="18" fill="#0c3b2e"/>
  <rect x="12" y="9" width="46" height="42" rx="10" fill="none" stroke="#fff" stroke-width="5"/>
  <path d="M21 12V5M47 12V5M18 22h42M22 29v16M35 29v16M49 29v16" fill="none" stroke="#fff" stroke-width="3" stroke-linecap="round"/>
  <circle cx="37" cy="37" r="13" fill="#c7f24b"/>
  <path d="M29 28c8 6 12 13 12 22M49 31c-9 3-15 8-20 16" fill="none" stroke="#0c3b2e" stroke-width="2.6" stroke-linecap="round"/>
  <path d="M34 52v13c0 3 2 5 5 5h1c3 0 5-2 5-5V52" fill="none" stroke="#fff" stroke-width="4" stroke-linecap="round"/>
</svg>
